<mxfile host="app.diagrams.net" modified="2024-05-19T09:43:34.517Z" agent="Mozilla/5.0 (X11; Linux x86_64) AppleWebKit/537.36 (KHTML, like Gecko) Chrome/120.0.0.0 YaBrowser/24.1.0.0 Safari/537.36" etag="TBpamGPxOPiPHN8eGGQn" version="24.4.4" type="device">
  <diagram name="Страница — 1" id="pw4GiCfPDfVY7ptkj_ah">
    <mxGraphModel dx="1221" dy="667" grid="1" gridSize="10" guides="1" tooltips="1" connect="1" arrows="1" fold="1" page="1" pageScale="1" pageWidth="827" pageHeight="1169" math="0" shadow="0">
      <root>
        <mxCell id="0" />
        <mxCell id="1" parent="0" />
        <mxCell id="qJyrYqZQRHDUgGqekOxT-1" value="Project" style="rounded=0;whiteSpace=wrap;html=1;" parent="1" vertex="1">
          <mxGeometry x="120" y="265" width="100" height="40" as="geometry" />
        </mxCell>
        <mxCell id="qJyrYqZQRHDUgGqekOxT-2" value="Сотрудник" style="shape=umlActor;verticalLabelPosition=bottom;verticalAlign=top;html=1;" parent="1" vertex="1">
          <mxGeometry x="310" y="250" width="30" height="60" as="geometry" />
        </mxCell>
        <mxCell id="qJyrYqZQRHDUgGqekOxT-4" value="Dataset" style="html=1;whiteSpace=wrap;" parent="1" vertex="1">
          <mxGeometry x="670" y="40" width="100" height="35" as="geometry" />
        </mxCell>
        <mxCell id="qJyrYqZQRHDUgGqekOxT-5" value="Model" style="html=1;whiteSpace=wrap;" parent="1" vertex="1">
          <mxGeometry x="690" y="590" width="100" height="35" as="geometry" />
        </mxCell>
        <mxCell id="qJyrYqZQRHDUgGqekOxT-6" value="Preprocessing" style="rounded=0;whiteSpace=wrap;html=1;" parent="1" vertex="1">
          <mxGeometry x="560" y="140" width="90" height="30" as="geometry" />
        </mxCell>
        <mxCell id="qJyrYqZQRHDUgGqekOxT-7" value="Selecting" style="rounded=0;whiteSpace=wrap;html=1;" parent="1" vertex="1">
          <mxGeometry x="560" y="220" width="90" height="30" as="geometry" />
        </mxCell>
        <mxCell id="qJyrYqZQRHDUgGqekOxT-8" value="Training" style="rounded=0;whiteSpace=wrap;html=1;" parent="1" vertex="1">
          <mxGeometry x="510" y="350" width="70" height="30" as="geometry" />
        </mxCell>
        <mxCell id="qJyrYqZQRHDUgGqekOxT-9" value="Relise" style="rounded=0;whiteSpace=wrap;html=1;" parent="1" vertex="1">
          <mxGeometry x="460" y="595" width="90" height="30" as="geometry" />
        </mxCell>
        <mxCell id="qJyrYqZQRHDUgGqekOxT-11" value="" style="line;strokeWidth=1;fillColor=none;align=left;verticalAlign=middle;spacingTop=-1;spacingLeft=3;spacingRight=3;rotatable=0;labelPosition=right;points=[];portConstraint=eastwest;strokeColor=inherit;" parent="1" vertex="1">
          <mxGeometry x="240" y="281" width="60" height="8" as="geometry" />
        </mxCell>
        <mxCell id="qJyrYqZQRHDUgGqekOxT-13" value="" style="endArrow=none;html=1;rounded=0;" parent="1" edge="1">
          <mxGeometry width="50" height="50" relative="1" as="geometry">
            <mxPoint x="169" y="255" as="sourcePoint" />
            <mxPoint x="659" y="55" as="targetPoint" />
            <Array as="points">
              <mxPoint x="169" y="155" />
              <mxPoint x="169" y="55" />
            </Array>
          </mxGeometry>
        </mxCell>
        <mxCell id="qJyrYqZQRHDUgGqekOxT-15" value="" style="endArrow=none;html=1;rounded=0;" parent="1" edge="1">
          <mxGeometry width="50" height="50" relative="1" as="geometry">
            <mxPoint x="390" y="270" as="sourcePoint" />
            <mxPoint x="550" y="160" as="targetPoint" />
            <Array as="points">
              <mxPoint x="390" y="160" />
            </Array>
          </mxGeometry>
        </mxCell>
        <mxCell id="qJyrYqZQRHDUgGqekOxT-16" value="" style="endArrow=none;html=1;rounded=0;" parent="1" edge="1">
          <mxGeometry width="50" height="50" relative="1" as="geometry">
            <mxPoint x="400" y="280" as="sourcePoint" />
            <mxPoint x="550" y="240" as="targetPoint" />
            <Array as="points" />
          </mxGeometry>
        </mxCell>
        <mxCell id="qJyrYqZQRHDUgGqekOxT-18" value="" style="endArrow=none;html=1;rounded=0;" parent="1" edge="1">
          <mxGeometry width="50" height="50" relative="1" as="geometry">
            <mxPoint x="400" y="310" as="sourcePoint" />
            <mxPoint x="550" y="340" as="targetPoint" />
            <Array as="points">
              <mxPoint x="470" y="310" />
              <mxPoint x="550" y="310" />
            </Array>
          </mxGeometry>
        </mxCell>
        <mxCell id="qJyrYqZQRHDUgGqekOxT-20" value="" style="endArrow=none;html=1;rounded=0;" parent="1" edge="1">
          <mxGeometry width="50" height="50" relative="1" as="geometry">
            <mxPoint x="770" y="580" as="sourcePoint" />
            <mxPoint x="760" y="80" as="targetPoint" />
          </mxGeometry>
        </mxCell>
        <mxCell id="qJyrYqZQRHDUgGqekOxT-21" value="" style="endArrow=none;html=1;rounded=0;" parent="1" edge="1">
          <mxGeometry width="50" height="50" relative="1" as="geometry">
            <mxPoint x="620" y="130" as="sourcePoint" />
            <mxPoint x="670" y="80" as="targetPoint" />
          </mxGeometry>
        </mxCell>
        <mxCell id="qJyrYqZQRHDUgGqekOxT-22" value="" style="endArrow=none;html=1;rounded=0;" parent="1" edge="1">
          <mxGeometry width="50" height="50" relative="1" as="geometry">
            <mxPoint x="660" y="230" as="sourcePoint" />
            <mxPoint x="730" y="80" as="targetPoint" />
            <Array as="points">
              <mxPoint x="720" y="230" />
            </Array>
          </mxGeometry>
        </mxCell>
        <mxCell id="qJyrYqZQRHDUgGqekOxT-23" value="" style="endArrow=none;html=1;rounded=0;" parent="1" edge="1">
          <mxGeometry width="50" height="50" relative="1" as="geometry">
            <mxPoint x="590" y="370" as="sourcePoint" />
            <mxPoint x="740" y="90" as="targetPoint" />
            <Array as="points">
              <mxPoint x="740" y="370" />
            </Array>
          </mxGeometry>
        </mxCell>
        <mxCell id="qJyrYqZQRHDUgGqekOxT-25" value="" style="endArrow=none;html=1;rounded=0;" parent="1" edge="1">
          <mxGeometry width="50" height="50" relative="1" as="geometry">
            <mxPoint x="560" y="610" as="sourcePoint" />
            <mxPoint x="670" y="610" as="targetPoint" />
            <Array as="points">
              <mxPoint x="620" y="610" />
            </Array>
          </mxGeometry>
        </mxCell>
        <mxCell id="qJyrYqZQRHDUgGqekOxT-26" value="" style="endArrow=none;html=1;rounded=0;" parent="1" edge="1">
          <mxGeometry width="50" height="50" relative="1" as="geometry">
            <mxPoint x="570" y="400" as="sourcePoint" />
            <mxPoint x="730" y="570" as="targetPoint" />
            <Array as="points">
              <mxPoint x="600" y="500" />
            </Array>
          </mxGeometry>
        </mxCell>
        <mxCell id="qJyrYqZQRHDUgGqekOxT-27" value="" style="endArrow=none;html=1;rounded=0;" parent="1" edge="1">
          <mxGeometry width="50" height="50" relative="1" as="geometry">
            <mxPoint x="170" y="320" as="sourcePoint" />
            <mxPoint x="450" y="610" as="targetPoint" />
            <Array as="points">
              <mxPoint x="170" y="610" />
            </Array>
          </mxGeometry>
        </mxCell>
        <mxCell id="qJyrYqZQRHDUgGqekOxT-30" value="1: loadData()" style="html=1;verticalAlign=bottom;endArrow=block;curved=0;rounded=0;" parent="1" edge="1">
          <mxGeometry width="80" relative="1" as="geometry">
            <mxPoint x="300" y="269.99999999999994" as="sourcePoint" />
            <mxPoint x="240" y="269.99999999999994" as="targetPoint" />
          </mxGeometry>
        </mxCell>
        <mxCell id="qJyrYqZQRHDUgGqekOxT-31" value="2 : init()" style="html=1;verticalAlign=bottom;endArrow=block;curved=0;rounded=0;" parent="1" edge="1">
          <mxGeometry width="80" relative="1" as="geometry">
            <mxPoint x="190" y="40" as="sourcePoint" />
            <mxPoint x="650" y="40" as="targetPoint" />
          </mxGeometry>
        </mxCell>
        <mxCell id="qJyrYqZQRHDUgGqekOxT-32" value="3 : init()&lt;div&gt;6:&amp;nbsp;&lt;span style=&quot;text-wrap: wrap; font-size: 12px; text-align: left; background-color: rgb(251, 251, 251);&quot;&gt;dataPreprocessing&lt;/span&gt;&amp;nbsp;()&lt;br&gt;&lt;/div&gt;&lt;div&gt;7:&amp;nbsp;&lt;span style=&quot;text-wrap: wrap; font-size: 12px; text-align: left; background-color: rgb(251, 251, 251);&quot;&gt;dataScince&lt;/span&gt;&amp;nbsp;()&lt;br&gt;&lt;/div&gt;&lt;div&gt;8: dataCleaning ()&lt;br&gt;&lt;/div&gt;&lt;div&gt;9:&amp;nbsp;&lt;span style=&quot;text-wrap: wrap; font-size: 12px; text-align: left; background-color: rgb(251, 251, 251);&quot;&gt;dataAug&lt;/span&gt;&amp;nbsp;()&lt;br&gt;&lt;/div&gt;" style="html=1;verticalAlign=bottom;endArrow=block;curved=0;rounded=0;" parent="1" edge="1">
          <mxGeometry width="80" relative="1" as="geometry">
            <mxPoint x="390" y="150" as="sourcePoint" />
            <mxPoint x="555" y="150" as="targetPoint" />
          </mxGeometry>
        </mxCell>
        <mxCell id="qJyrYqZQRHDUgGqekOxT-33" value="4 : getDataset()&lt;div&gt;10: saveChanges ()&lt;br&gt;&lt;/div&gt;" style="html=1;verticalAlign=bottom;endArrow=block;curved=0;rounded=0;" parent="1" edge="1">
          <mxGeometry x="-0.12" y="4" width="80" relative="1" as="geometry">
            <mxPoint x="590" y="130" as="sourcePoint" />
            <mxPoint x="660" y="60" as="targetPoint" />
            <mxPoint as="offset" />
          </mxGeometry>
        </mxCell>
        <mxCell id="qJyrYqZQRHDUgGqekOxT-34" value="5: loadDataset()" style="html=1;verticalAlign=bottom;endArrow=open;dashed=1;endSize=8;curved=0;rounded=0;" parent="1" edge="1">
          <mxGeometry x="0.44" y="-3" relative="1" as="geometry">
            <mxPoint x="690" y="80" as="sourcePoint" />
            <mxPoint x="650" y="130" as="targetPoint" />
            <mxPoint as="offset" />
          </mxGeometry>
        </mxCell>
        <mxCell id="qJyrYqZQRHDUgGqekOxT-36" value="10 : init()&lt;div&gt;16:&amp;nbsp;&lt;span style=&quot;text-wrap: wrap; font-size: 12px; text-align: left; background-color: rgb(251, 251, 251);&quot;&gt;learnModels&lt;/span&gt;&amp;nbsp;()&lt;br&gt;&lt;/div&gt;&lt;div&gt;17:&amp;nbsp;&lt;span style=&quot;text-wrap: wrap; font-size: 12px; text-align: left; background-color: rgb(251, 251, 251);&quot;&gt;selectBest&lt;/span&gt;&amp;nbsp;()&lt;br&gt;&lt;/div&gt;&lt;div&gt;18:&amp;nbsp;&lt;span style=&quot;text-wrap: wrap; font-size: 12px; text-align: left; background-color: rgb(251, 251, 251);&quot;&gt;saveResults&lt;/span&gt;&amp;nbsp;()&lt;br&gt;&lt;/div&gt;" style="html=1;verticalAlign=bottom;endArrow=block;curved=0;rounded=0;" parent="1" edge="1">
          <mxGeometry x="-0.1867" y="4" width="80" relative="1" as="geometry">
            <mxPoint x="400" y="270" as="sourcePoint" />
            <mxPoint x="550" y="230" as="targetPoint" />
            <mxPoint as="offset" />
          </mxGeometry>
        </mxCell>
        <mxCell id="qJyrYqZQRHDUgGqekOxT-38" value="" style="endArrow=none;html=1;rounded=0;entryX=1;entryY=1;entryDx=0;entryDy=0;" parent="1" target="qJyrYqZQRHDUgGqekOxT-7" edge="1">
          <mxGeometry width="50" height="50" relative="1" as="geometry">
            <mxPoint x="740" y="560" as="sourcePoint" />
            <mxPoint x="770" y="90" as="targetPoint" />
          </mxGeometry>
        </mxCell>
        <mxCell id="qJyrYqZQRHDUgGqekOxT-40" value="19: saveModel ()" style="html=1;verticalAlign=bottom;endArrow=block;curved=0;rounded=0;" parent="1" edge="1">
          <mxGeometry x="-0.7202" y="-3" width="80" relative="1" as="geometry">
            <mxPoint x="660" y="260" as="sourcePoint" />
            <mxPoint x="740" y="540" as="targetPoint" />
            <mxPoint as="offset" />
            <Array as="points">
              <mxPoint x="660" y="260" />
            </Array>
          </mxGeometry>
        </mxCell>
        <mxCell id="qJyrYqZQRHDUgGqekOxT-41" value="20:init ()&lt;div&gt;25:&amp;nbsp;&lt;span style=&quot;text-wrap: wrap; font-size: 12px; text-align: left; background-color: rgb(251, 251, 251);&quot;&gt;trainModel&lt;/span&gt;&amp;nbsp;()&lt;br&gt;&lt;/div&gt;&lt;div&gt;26: save&lt;span style=&quot;text-wrap: wrap; font-size: 12px; text-align: left; background-color: rgb(251, 251, 251);&quot;&gt;Model&lt;/span&gt;&amp;nbsp;()&lt;br&gt;&lt;/div&gt;" style="html=1;verticalAlign=bottom;endArrow=block;curved=0;rounded=0;" parent="1" edge="1">
          <mxGeometry x="0.0933" y="-50" width="80" relative="1" as="geometry">
            <mxPoint x="378" y="330" as="sourcePoint" />
            <mxPoint x="528" y="330" as="targetPoint" />
            <mxPoint as="offset" />
          </mxGeometry>
        </mxCell>
        <mxCell id="qJyrYqZQRHDUgGqekOxT-43" value="&lt;div&gt;21: getDataset ()&lt;/div&gt;" style="html=1;verticalAlign=bottom;endArrow=block;curved=0;rounded=0;" parent="1" edge="1">
          <mxGeometry x="-0.12" y="4" width="80" relative="1" as="geometry">
            <mxPoint x="590" y="364.5" as="sourcePoint" />
            <mxPoint x="660" y="364.5" as="targetPoint" />
            <mxPoint as="offset" />
          </mxGeometry>
        </mxCell>
        <mxCell id="qJyrYqZQRHDUgGqekOxT-44" value="22: LoadDataset()" style="html=1;verticalAlign=bottom;endArrow=open;dashed=1;endSize=8;curved=0;rounded=0;" parent="1" edge="1">
          <mxGeometry relative="1" as="geometry">
            <mxPoint x="680" y="390" as="sourcePoint" />
            <mxPoint x="600" y="390" as="targetPoint" />
            <mxPoint as="offset" />
          </mxGeometry>
        </mxCell>
        <mxCell id="qJyrYqZQRHDUgGqekOxT-45" value="&lt;div&gt;12: getDataset ()&lt;/div&gt;" style="html=1;verticalAlign=bottom;endArrow=block;curved=0;rounded=0;" parent="1" edge="1">
          <mxGeometry x="-0.12" y="4" width="80" relative="1" as="geometry">
            <mxPoint x="660" y="220" as="sourcePoint" />
            <mxPoint x="720" y="220" as="targetPoint" />
            <mxPoint as="offset" />
          </mxGeometry>
        </mxCell>
        <mxCell id="qJyrYqZQRHDUgGqekOxT-46" value="13: LoadDataset()" style="html=1;verticalAlign=bottom;endArrow=open;dashed=1;endSize=8;curved=0;rounded=0;" parent="1" edge="1">
          <mxGeometry relative="1" as="geometry">
            <mxPoint x="730" y="249" as="sourcePoint" />
            <mxPoint x="660" y="249" as="targetPoint" />
            <mxPoint as="offset" />
          </mxGeometry>
        </mxCell>
        <mxCell id="qJyrYqZQRHDUgGqekOxT-47" value="27: saveState ()" style="html=1;verticalAlign=bottom;endArrow=block;curved=0;rounded=0;" parent="1" edge="1">
          <mxGeometry x="0.4763" width="80" relative="1" as="geometry">
            <mxPoint x="560" y="400" as="sourcePoint" />
            <mxPoint x="590" y="490" as="targetPoint" />
            <mxPoint as="offset" />
            <Array as="points">
              <mxPoint x="560" y="400" />
            </Array>
          </mxGeometry>
        </mxCell>
        <mxCell id="qJyrYqZQRHDUgGqekOxT-48" value="" style="endArrow=none;html=1;rounded=0;" parent="1" edge="1">
          <mxGeometry width="50" height="50" relative="1" as="geometry">
            <mxPoint x="330" y="340" as="sourcePoint" />
            <mxPoint x="470" y="580" as="targetPoint" />
            <Array as="points">
              <mxPoint x="350" y="500" />
            </Array>
          </mxGeometry>
        </mxCell>
        <mxCell id="qJyrYqZQRHDUgGqekOxT-49" value="29: getModels ()" style="html=1;verticalAlign=bottom;endArrow=block;curved=0;rounded=0;" parent="1" edge="1">
          <mxGeometry x="-0.0909" width="80" relative="1" as="geometry">
            <mxPoint x="570" y="600" as="sourcePoint" />
            <mxPoint x="680" y="600" as="targetPoint" />
            <mxPoint x="-1" as="offset" />
            <Array as="points" />
          </mxGeometry>
        </mxCell>
        <mxCell id="qJyrYqZQRHDUgGqekOxT-50" value="&amp;nbsp;" style="html=1;verticalAlign=bottom;endArrow=open;dashed=1;endSize=8;curved=0;rounded=0;" parent="1" edge="1">
          <mxGeometry relative="1" as="geometry">
            <mxPoint x="670" y="625" as="sourcePoint" />
            <mxPoint x="560" y="625" as="targetPoint" />
          </mxGeometry>
        </mxCell>
        <mxCell id="qJyrYqZQRHDUgGqekOxT-51" value="30: LoadModels()" style="edgeLabel;html=1;align=center;verticalAlign=middle;resizable=0;points=[];" parent="qJyrYqZQRHDUgGqekOxT-50" vertex="1" connectable="0">
          <mxGeometry x="-0.0223" y="1" relative="1" as="geometry">
            <mxPoint x="1" y="11" as="offset" />
          </mxGeometry>
        </mxCell>
        <mxCell id="qJyrYqZQRHDUgGqekOxT-52" value="28:init ()&lt;div&gt;31:&amp;nbsp;&lt;span style=&quot;text-wrap: wrap; font-size: 12px; text-align: left; background-color: rgb(251, 251, 251);&quot;&gt;pipeline&lt;/span&gt;&lt;span style=&quot;color: rgba(0, 0, 0, 0); font-family: monospace; font-size: 0px; text-align: start; background-color: rgb(251, 251, 251);&quot;&gt;%3CmxGraphModel%3E%3Croot%3E%3CmxCell%20id%3D%220%22%2F%3E%3CmxCell%20id%3D%221%22%20parent%3D%220%22%2F%3E%3CmxCell%20id%3D%222%22%20value%3D%2228%3Ainit%20()%22%20style%3D%22html%3D1%3BverticalAlign%3Dbottom%3BendArrow%3Dblock%3Bcurved%3D0%3Brounded%3D0%3B%22%20edge%3D%221%22%20parent%3D%221%22%3E%3CmxGeometry%20x%3D%22-0.3846%22%20width%3D%2280%22%20relative%3D%221%22%20as%3D%22geometry%22%3E%3CmxPoint%20x%3D%2260%22%20y%3D%22790%22%20as%3D%22sourcePoint%22%2F%3E%3CmxPoint%20x%3D%22970%22%20y%3D%22790%22%20as%3D%22targetPoint%22%2F%3E%3CmxPoint%20as%3D%22offset%22%2F%3E%3C%2FmxGeometry%3E%3C%2FmxCell%3E%3C%2Froot%3E%3C%2FmxGraphModel%3E&lt;/span&gt;&lt;span style=&quot;color: rgba(0, 0, 0, 0); font-family: monospace; font-size: 0px; text-align: start; background-color: rgb(251, 251, 251);&quot;&gt;%3CmxGraphModel%3E%3Croot%3E%3CmxCell%20id%3D%220%22%2F%3E%3CmxCell%20id%3D%221%22%20parent%3D%220%22%2F%3E%3CmxCell%20id%3D%222%22%20value%3D%2228%3Ainit%20()%22%20style%3D%22html%3D1%3BverticalAlign%3Dbottom%3BendArrow%3Dblock%3Bcurved%3D0%3Brounded%3D0%3B%22%20edge%3D%221%22%20parent%3D%221%22%3E%3CmxGeometry%20x%3D%22-0.3846%22%20width%3D%2280%22%20relative%3D%221%22%20as%3D%22geometry%22%3E%3CmxPoint%20x%3D%2260%22%20y%3D%22790%22%20as%3D%22sourcePoint%22%2F%3E%3CmxPoint%20x%3D%22970%22%20y%3D%22790%22%20as%3D%22targetPoint%22%2F%3E%3CmxPoint%20as%3D%22offset%22%2F%3E%3C%2FmxGeometry%3E%3C%2FmxCell%3E%3C%2Froot%3E%3C%2FmxGraphModel%3E&lt;/span&gt;&amp;nbsp;()&lt;br&gt;&lt;/div&gt;&lt;div&gt;32:&amp;nbsp;&lt;span style=&quot;text-wrap: wrap; font-size: 12px; text-align: left; background-color: rgb(251, 251, 251);&quot;&gt;Documentation&lt;/span&gt;&amp;nbsp;()&lt;br&gt;&lt;/div&gt;&lt;div&gt;33:&amp;nbsp;&lt;span style=&quot;text-wrap: wrap; font-size: 12px; text-align: left; background-color: rgb(251, 251, 251);&quot;&gt;buildModel&lt;/span&gt;&amp;nbsp;()&lt;br&gt;&lt;/div&gt;" style="html=1;verticalAlign=bottom;endArrow=block;curved=0;rounded=0;" parent="1" edge="1">
          <mxGeometry x="0.4039" y="44" width="80" relative="1" as="geometry">
            <mxPoint x="340" y="340" as="sourcePoint" />
            <mxPoint x="480" y="580" as="targetPoint" />
            <mxPoint as="offset" />
            <Array as="points">
              <mxPoint x="370" y="490" />
            </Array>
          </mxGeometry>
        </mxCell>
        <mxCell id="qJyrYqZQRHDUgGqekOxT-53" value="34: Result ()" style="html=1;verticalAlign=bottom;endArrow=block;curved=0;rounded=0;" parent="1" edge="1">
          <mxGeometry x="0.04" width="80" relative="1" as="geometry">
            <mxPoint x="420" y="595" as="sourcePoint" />
            <mxPoint x="180" y="595.2" as="targetPoint" />
            <mxPoint as="offset" />
            <Array as="points">
              <mxPoint x="180" y="595" />
            </Array>
          </mxGeometry>
        </mxCell>
      </root>
    </mxGraphModel>
  </diagram>
</mxfile>
